<?xml version="1.0" standalone="no"?>
<!DOCTYPE svg PUBLIC "-//W3C//DTD SVG 20010904//EN"
 "http://www.w3.org/TR/2001/REC-SVG-20010904/DTD/svg10.dtd">
<svg version="1.0" xmlns="http://www.w3.org/2000/svg"
 width="600.000000pt" height="800.000000pt" viewBox="0 0 600.000000 800.000000"
 preserveAspectRatio="xMidYMid meet">
<metadata>
Created by potrace 1.16, written by Peter Selinger 2001-2019
</metadata>
<g transform="translate(0.000000,800.000000) scale(0.100000,-0.100000)"
fill="#000000" stroke="none">
<path d="M2905 7719 c-106 -13 -357 -74 -422 -104 -28 -13 -93 -35 -144 -50
-113 -32 -168 -60 -284 -140 -96 -68 -169 -138 -283 -277 -40 -48 -92 -107
-116 -131 -30 -31 -46 -57 -51 -83 -6 -35 -15 -44 -80 -86 -55 -34 -82 -60
-108 -101 -20 -30 -40 -58 -46 -61 -6 -4 -11 -26 -11 -50 0 -33 -6 -48 -26
-67 -15 -13 -35 -43 -46 -67 -19 -43 -19 -43 2 -87 24 -50 25 -57 15 -145 -4
-38 -13 -68 -21 -73 -8 -4 -14 -19 -14 -32 0 -15 -6 -25 -15 -25 -8 0 -19 -9
-25 -20 -8 -16 -7 -27 7 -50 17 -29 17 -30 -4 -45 -12 -9 -25 -31 -29 -50 -4
-21 -12 -35 -21 -35 -7 0 -25 -11 -38 -24 -22 -22 -24 -31 -19 -73 4 -26 14
-56 23 -66 9 -11 14 -29 13 -42 -2 -16 3 -25 17 -30 16 -5 19 -12 14 -39 -7
-44 21 -92 66 -115 l34 -18 -2 -94 c-3 -139 15 -267 54 -387 19 -59 42 -141
51 -182 28 -123 90 -268 129 -300 8 -7 15 -27 15 -45 0 -31 81 -208 101 -221
18 -11 129 -145 129 -155 0 -8 -5 -8 -14 1 -8 6 -25 10 -38 8 -22 -4 -22 -5 5
-16 27 -11 37 -29 51 -85 6 -26 5 -28 -21 -25 -25 3 -28 7 -28 37 0 34 -26 63
-42 47 -4 -4 0 -12 9 -17 14 -8 15 -15 7 -36 -18 -47 30 -76 105 -62 16 3 23
-6 35 -44 14 -47 14 -48 -10 -64 -13 -10 -42 -34 -64 -54 -38 -35 -51 -39
-320 -103 -296 -71 -442 -116 -539 -169 l-60 -32 -26 -81 c-15 -45 -46 -115
-70 -155 l-43 -73 11 -85 c12 -84 11 -90 -24 -235 -33 -136 -39 -150 -65 -165
-32 -18 -34 -23 -18 -53 9 -17 6 -25 -16 -47 -19 -21 -25 -37 -24 -62 2 -21
-13 -73 -36 -132 -30 -76 -45 -102 -66 -112 -27 -15 -39 -40 -39 -88 0 -16
-14 -48 -31 -72 l-31 -43 25 -37 c14 -21 24 -42 21 -49 -2 -6 -35 -112 -74
-236 -38 -124 -93 -283 -121 -353 l-52 -129 14 -71 c7 -40 13 -142 14 -227 l0
-155 38 -62 c20 -34 37 -66 37 -71 0 -5 23 -40 50 -78 28 -38 55 -85 60 -104
6 -19 14 -41 18 -47 5 -8 89 -19 247 -33 132 -11 267 -23 300 -26 34 -3 104
-23 163 -46 l102 -40 0 -134 0 -134 1331 0 1331 0 -6 78 c-4 42 -31 401 -61
797 -30 396 -65 814 -77 928 l-21 208 38 80 c22 43 45 79 52 79 8 0 29 -7 48
-14 29 -12 35 -20 35 -44 0 -16 18 -281 40 -588 l41 -559 -11 -385 c-5 -212
-12 -429 -15 -483 l-5 -97 735 0 c707 0 735 1 735 18 0 21 -36 656 -44 772 -3
41 -8 122 -12 180 -3 58 -19 186 -34 285 -16 99 -36 225 -45 280 -43 269 -75
514 -75 573 0 36 -11 139 -25 229 -25 160 -26 164 -9 246 12 60 16 126 15 247
-2 183 -20 301 -56 365 -12 22 -26 51 -30 65 -4 14 -16 34 -26 46 -19 20 -19
22 0 77 22 63 41 209 41 314 0 37 5 95 10 128 6 33 19 126 29 206 15 112 31
180 69 300 28 85 55 178 61 207 17 81 13 292 -8 432 -16 101 -17 135 -8 183 8
44 8 63 -1 78 -10 15 -9 24 3 43 15 22 15 27 1 55 -9 16 -14 36 -11 43 2 7 6
29 8 49 2 20 14 51 28 70 13 19 24 47 24 63 0 27 4 31 46 41 60 16 69 22 69
47 0 16 -5 19 -25 16 -14 -3 -28 -1 -31 3 -3 5 0 9 6 9 14 0 110 72 110 82 0
16 -27 8 -46 -13 -24 -27 -75 -49 -111 -48 -26 0 -25 2 12 15 47 17 95 61 95
86 0 27 -19 22 -26 -7 -7 -30 -20 -32 -27 -5 -3 11 -11 20 -17 20 -7 0 -10 -8
-7 -19 3 -13 -3 -27 -16 -38 -21 -17 -21 -17 -8 0 10 12 11 21 4 28 -7 7 -17
0 -32 -24 -19 -31 -39 -47 -59 -47 -3 0 6 12 20 28 46 49 63 102 33 102 -10 0
-15 -10 -15 -28 0 -43 -56 -91 -137 -118 -82 -27 -73 -31 17 -6 41 11 78 15
100 11 l35 -6 -37 -2 c-21 0 -57 -7 -80 -15 -24 -8 -83 -24 -133 -35 -49 -12
-108 -26 -130 -31 -22 -5 -56 -12 -75 -14 -19 -2 3 -2 50 1 47 3 107 5 133 4
28 -1 72 7 102 18 29 11 56 17 59 14 12 -12 6 -23 -13 -23 -11 0 -23 -4 -26
-10 -3 -5 3 -10 14 -10 20 0 29 -14 14 -23 -5 -2 -1 -2 7 1 8 2 26 6 40 8 l25
4 -25 -11 -25 -11 34 -12 c46 -16 49 -30 12 -57 -27 -19 -30 -28 -25 -54 6
-34 -22 -79 -55 -90 -17 -5 -91 20 -91 31 0 3 17 3 38 0 20 -4 44 -2 52 4 11
7 3 10 -30 11 l-45 1 34 12 c53 19 51 36 -3 23 -39 -9 -47 -7 -75 12 -41 29
-67 36 -234 61 -157 23 -247 26 -265 8 -20 -20 -14 -28 14 -18 36 14 42 12 18
-4 -11 -8 -31 -14 -44 -15 -14 0 -40 -2 -58 -4 -24 -3 -30 -1 -22 7 11 11 16
13 51 15 11 0 18 5 14 11 -3 5 -13 6 -23 3 -12 -5 -10 1 7 21 14 14 30 25 35
23 6 -2 22 0 36 5 16 6 64 5 135 -2 106 -12 175 -6 175 14 0 4 -55 10 -122 12
-66 2 -123 6 -125 8 -10 10 97 49 166 62 41 7 79 18 85 25 8 9 4 10 -19 6 -16
-3 -68 -12 -114 -18 -52 -8 -77 -15 -66 -19 15 -5 6 -13 -40 -34 -33 -15 -71
-28 -85 -30 -14 -2 -56 -15 -94 -30 -38 -14 -71 -25 -73 -23 -2 2 6 12 16 21
11 10 18 23 15 30 -3 7 0 33 6 57 25 103 34 198 22 229 -9 22 -10 20 -10 -20
0 -40 -4 -82 -18 -154 -2 -10 -25 -40 -52 -65 -48 -46 -32 -39 21 8 35 32 35
8 0 -27 -15 -15 -27 -30 -25 -34 1 -5 -4 -8 -12 -8 -8 0 -24 -9 -37 -20 l-24
-21 31 15 c17 8 34 13 37 10 10 -10 -6 -209 -17 -216 -6 -5 -7 -8 -1 -8 11 0
26 -31 45 -95 7 -22 19 -49 26 -60 21 -30 17 -37 -13 -19 -29 16 -21 9 32 -30
30 -21 12 -30 -24 -11 -43 22 -39 13 9 -19 33 -21 39 -31 37 -56 -2 -35 -4
-36 -31 -12 -12 10 -9 3 7 -17 34 -41 27 -53 -11 -20 l-27 24 21 -25 c24 -29
44 -74 44 -97 0 -13 -8 -10 -32 13 l-32 29 32 -40 c18 -22 32 -47 32 -57 0 -9
5 -20 10 -23 6 -4 9 -1 8 7 -2 7 3 12 11 10 9 -2 11 3 6 15 -4 10 -10 60 -13
112 -4 72 -2 92 7 86 9 -5 10 -2 3 11 -18 36 -39 114 -32 114 5 0 -4 13 -20
28 -18 19 -32 48 -41 86 -12 57 -12 59 12 77 13 10 40 26 59 35 19 9 52 32 72
50 72 64 85 67 211 49 212 -31 297 -58 297 -95 0 -27 -26 -25 -62 5 -34 29
-144 65 -197 65 -63 0 -139 -27 -242 -85 -55 -31 -98 -59 -96 -62 3 -2 24 5
48 18 45 22 52 22 202 -6 9 -2 22 5 27 15 15 28 12 33 -10 17 -16 -11 -33 -12
-77 -5 -32 5 -59 11 -61 13 -2 2 9 10 26 19 19 10 32 12 39 5 7 -7 19 -6 37 2
34 16 44 5 20 -23 -19 -23 -19 -23 1 -7 15 13 30 15 60 10 34 -6 40 -10 37
-30 -2 -20 -1 -21 14 -7 8 9 19 14 24 11 4 -3 10 2 14 10 3 8 1 17 -5 20 -5 4
-7 11 -4 16 4 5 1 9 -6 9 -7 0 -10 3 -7 6 4 3 19 -1 36 -10 19 -10 32 -12 39
-5 10 10 63 -7 63 -21 0 -19 -41 -39 -87 -42 -29 -2 -56 -8 -60 -12 -13 -13
120 5 150 21 34 17 49 9 21 -12 -10 -8 -14 -15 -8 -15 6 0 17 7 24 15 7 8 27
15 44 15 l31 -1 -39 -34 c-49 -43 -33 -46 20 -4 32 25 45 29 79 25 22 -2 34
-2 27 1 -10 4 -9 8 4 18 15 11 21 9 37 -11 10 -13 15 -29 12 -35 -5 -6 -12 -4
-20 8 -13 17 -13 17 -12 -2 2 -14 -6 -21 -28 -26 -20 -4 -23 -7 -9 -8 23 -1
70 -49 58 -59 -4 -4 -9 -2 -11 5 -3 7 -17 10 -39 6 -19 -3 -40 -1 -48 6 -11 9
-15 5 -20 -23 -4 -20 -12 -38 -18 -42 -8 -5 -9 2 -4 22 5 21 -3 13 -29 -29
-19 -32 -35 -61 -35 -64 0 -12 40 30 45 48 3 10 12 16 20 13 8 -4 18 7 25 28
11 30 16 34 44 31 59 -7 76 -13 76 -28 0 -9 -10 -16 -22 -16 -17 -1 -19 -2 -5
-6 11 -3 17 -14 17 -33 0 -25 -4 -29 -32 -33 l-33 -4 34 -1 c22 -1 32 -6 28
-15 -2 -7 4 -51 14 -97 24 -109 24 -107 -12 -71 -17 17 -42 34 -55 37 l-25 6
22 24 c12 13 18 24 12 24 -5 0 -19 -10 -31 -23 l-22 -23 38 -22 c21 -11 51
-33 68 -48 l29 -28 -1 -137 c0 -96 -4 -142 -13 -153 -7 -8 -10 -20 -7 -25 8
-12 -11 -92 -33 -141 -8 -19 -16 -42 -17 -50 -1 -8 -15 -60 -32 -115 -17 -55
-34 -134 -37 -175 -3 -41 -12 -118 -21 -170 -8 -52 -14 -111 -13 -130 2 -43
-12 -223 -17 -229 -2 -2 -4 36 -5 85 0 49 -4 109 -8 134 -5 26 -6 -13 -3 -90
3 -74 5 -144 4 -155 -2 -42 -21 -134 -31 -152 -9 -15 -10 -11 -11 22 0 29 -3
36 -10 25 -5 -8 -7 -33 -3 -55 4 -36 1 -45 -33 -86 -22 -26 -56 -61 -78 -80
l-39 -33 7 34 6 35 -15 -40 c-14 -34 -34 -59 -42 -51 -2 2 4 19 12 39 8 20 15
42 14 49 0 7 -10 -14 -23 -46 -12 -33 -29 -62 -36 -64 -9 -3 -11 1 -7 14 7 18
6 18 -8 0 -8 -11 -24 -21 -34 -23 -19 -3 -19 -1 -5 39 8 22 12 43 10 45 -2 2
-12 -19 -22 -47 -18 -50 -46 -70 -38 -27 2 12 -1 7 -8 -10 -15 -44 -32 -42
-25 2 3 20 2 33 -3 30 -5 -3 -12 -22 -16 -43 -9 -52 -30 -126 -45 -154 -25
-47 -94 -121 -158 -168 -111 -82 -118 -88 -135 -124 -15 -31 -21 -35 -51 -34
-19 1 -38 -1 -41 -5 -3 -3 7 -5 24 -5 39 1 54 -9 43 -30 -4 -9 -6 -23 -4 -29
3 -9 -6 -13 -26 -13 -22 0 -44 11 -73 37 -36 34 -39 35 -23 10 20 -31 63 -57
95 -57 13 0 20 -7 20 -20 0 -15 -7 -20 -27 -21 l-28 -1 25 -8 c22 -7 21 -8
-15 -11 -37 -2 -38 -2 -8 -6 23 -3 30 -8 26 -19 -8 -21 -67 -17 -114 7 -23 11
-38 16 -35 11 3 -5 19 -15 36 -22 23 -9 28 -15 18 -21 -8 -6 4 -9 32 -9 l45
-1 -25 -20 c-25 -21 -81 -23 -124 -4 -14 6 -17 5 -12 -3 4 -7 25 -15 47 -18
36 -6 38 -8 21 -20 -38 -26 -72 -28 -104 -4 -29 21 -29 21 -18 1 9 -18 8 -21
-10 -21 -12 0 -24 9 -30 23 l-9 22 0 -22 c-1 -19 -5 -21 -23 -15 -13 5 -38 7
-57 5 -20 -2 -38 2 -43 9 -6 10 -8 8 -8 -4 0 -23 -37 -33 -58 -16 -15 12 -16
11 -4 -4 8 -9 11 -22 7 -28 -5 -7 2 -9 21 -4 34 9 24 -13 -12 -26 -31 -12 -65
1 -107 40 -17 16 -47 42 -65 57 -17 16 -48 57 -67 93 -19 36 -35 61 -35 55 0
-27 79 -152 108 -170 17 -11 29 -26 27 -33 -3 -7 0 -10 5 -7 5 3 25 -5 43 -19
19 -15 39 -26 45 -26 20 0 13 -18 -8 -25 -22 -7 -81 31 -108 67 -7 10 -17 16
-22 13 -11 -7 -72 91 -106 171 -15 35 -29 62 -32 60 -2 -3 16 -47 41 -99 42
-90 106 -177 131 -177 6 -1 24 -11 39 -24 25 -20 26 -24 12 -30 -9 -3 -21 -4
-26 0 -5 3 -9 -1 -9 -7 0 -7 -18 6 -40 30 -22 23 -40 47 -40 52 0 6 -5 7 -10
4 -39 -24 -82 41 -140 206 -22 63 -40 106 -40 97 0 -34 79 -239 105 -274 15
-19 25 -37 22 -40 -13 -13 -39 14 -61 62 -14 30 -27 54 -30 54 -8 0 44 -114
61 -132 9 -10 23 -18 32 -18 9 0 31 -9 50 -21 18 -11 35 -18 37 -16 2 2 -12
12 -31 23 -38 20 -43 31 -19 41 20 7 78 -58 60 -69 -22 -15 -58 -7 -131 27
-78 38 -105 64 -169 170 -20 33 -36 56 -36 51 0 -13 58 -117 78 -138 23 -27 6
-22 -51 15 -29 19 -64 41 -79 50 -16 10 -57 62 -93 117 -35 55 -67 100 -70
100 -3 0 20 -39 50 -86 31 -48 55 -88 53 -90 -4 -4 -123 84 -160 119 -16 14
-28 32 -28 39 1 7 16 -5 35 -26 48 -54 44 -36 -4 22 -22 26 -58 81 -80 122
-22 41 -41 72 -41 67 0 -13 72 -152 81 -155 5 -2 9 -8 9 -13 0 -6 -5 -7 -11
-3 -7 4 -7 -1 1 -16 6 -12 9 -24 6 -27 -3 -3 -8 2 -12 11 -3 9 -9 14 -13 11
-13 -7 -50 25 -45 39 3 7 -3 19 -13 27 -16 13 -17 12 -4 -4 8 -9 11 -21 7 -24
-4 -4 -11 -1 -15 7 -25 44 -76 118 -79 115 -2 -2 10 -24 28 -50 18 -26 30 -48
28 -50 -5 -6 -55 41 -67 63 -7 13 -17 19 -26 16 -20 -8 -41 11 -66 55 -12 22
-17 27 -13 13 6 -23 5 -23 -20 -7 -16 11 -34 39 -47 76 -12 33 -24 58 -26 56
-2 -2 4 -23 12 -47 8 -23 15 -45 15 -47 0 -11 -154 126 -241 214 -97 100 -203
239 -193 254 3 5 0 9 -5 9 -6 0 -11 5 -11 11 0 6 -11 25 -24 42 -13 18 -32 50
-42 72 -10 22 -24 46 -31 53 -7 7 -13 20 -13 29 0 9 -7 21 -15 27 -13 10 -27
53 -75 230 l-19 69 49 96 c27 53 52 107 55 121 l5 25 -11 -25 c-35 -78 -94
-190 -100 -190 -17 0 -14 29 9 84 32 81 99 212 118 235 31 36 76 181 63 202
-5 8 -9 24 -9 37 0 12 -7 25 -15 28 -8 4 -15 12 -15 19 0 7 -7 18 -15 25 -17
14 -19 8 -6 -18 45 -88 52 -110 46 -145 -9 -47 -20 -47 -33 1 -6 23 -10 29
-11 16 -1 -28 -67 -63 -133 -71 l-48 -6 -2 49 -1 49 -4 -42 c-2 -24 -9 -43
-14 -43 -6 0 -8 19 -5 47 l6 48 -15 -45 -15 -45 5 65 c2 36 7 74 10 85 6 19 6
19 -5 2 -7 -11 -14 -45 -17 -78 -3 -32 -8 -59 -12 -59 -3 0 -15 10 -26 23 -11
13 -28 26 -37 30 -9 3 -24 17 -33 31 -15 23 -15 27 1 58 9 18 32 53 51 78 l35
45 -41 -45 c-22 -24 -46 -57 -52 -72 -6 -16 -14 -28 -18 -28 -3 0 -28 33 -54
73 -27 40 -68 101 -93 136 -28 42 -42 71 -38 83 3 10 1 18 -5 18 -6 0 -8 7 -5
15 4 8 2 15 -4 15 -5 0 -18 29 -27 65 -15 55 -16 67 -4 82 13 17 13 17 -5 3
-18 -14 -19 -13 -13 2 3 9 2 18 -2 20 -4 2 -23 55 -42 118 -33 112 -34 120
-34 290 0 143 3 182 17 212 15 33 20 37 39 29 13 -4 25 -14 27 -21 3 -7 1 -10
-4 -7 -5 3 -10 -9 -10 -25 -1 -24 1 -27 8 -14 7 12 14 14 28 6 25 -13 41 -13
38 1 -2 6 4 14 12 16 13 4 13 3 0 -6 -8 -6 -11 -11 -7 -11 4 0 3 -9 -3 -19 -7
-14 -6 -21 3 -24 7 -3 5 -6 -5 -6 -14 -1 -15 -6 -8 -30 4 -16 5 -33 2 -37 -4
-4 0 -5 8 -2 8 3 15 11 15 19 0 9 13 15 38 17 39 3 42 22 4 22 -21 1 -21 1 5
25 15 13 22 25 16 27 -6 2 21 4 60 4 103 1 180 42 286 152 45 46 102 100 129
120 26 20 47 40 47 45 0 5 -21 -9 -47 -30 -77 -62 -90 -70 -54 -30 19 20 52
49 73 63 21 15 36 29 34 31 -3 3 -26 -10 -51 -29 -26 -18 -57 -40 -68 -48
l-21 -15 20 35 c19 31 32 110 20 110 -3 0 -15 -18 -26 -41 -12 -23 -24 -39
-26 -36 -3 3 4 24 16 47 12 23 19 44 16 47 -2 3 -1 16 5 30 13 36 -7 19 -31
-25 -10 -20 -19 -30 -20 -22 0 9 7 26 16 38 20 29 28 72 13 72 -7 0 -5 10 6
26 9 15 12 23 6 20 -6 -4 -11 -2 -11 4 0 5 15 19 33 30 17 11 27 20 22 20 -6
0 -21 -7 -33 -16 -13 -9 -26 -14 -29 -11 -2 3 7 13 21 22 14 10 26 23 26 30 0
15 83 40 104 32 8 -3 45 3 83 14 37 10 88 19 113 20 34 1 39 3 21 8 -40 11 74
41 150 40 l64 -2 -55 -8 c-30 -5 -73 -13 -95 -18 l-40 -9 58 -1 c139 -3 394
76 477 148 18 16 10 14 -31 -8 -54 -30 -162 -71 -183 -71 -6 1 19 14 55 29 76
33 203 111 194 119 -3 3 -18 -4 -33 -15 -65 -48 -208 -108 -312 -132 -61 -14
-36 2 45 28 90 30 215 96 260 138 41 39 42 43 13 44 -13 0 2 8 32 16 53 14 59
14 140 -11 190 -58 431 -97 480 -78 20 7 10 10 -50 11 -81 2 -167 17 -120 21
14 1 30 2 37 1 6 -1 14 2 17 7 3 5 -38 12 -92 15 -89 5 -303 54 -320 72 -4 4
2 5 13 2 91 -28 203 -47 269 -47 44 0 76 3 72 7 -3 4 -30 6 -59 6 -28 -1 -44
1 -34 3 36 11 14 21 -70 32 -49 7 -115 21 -148 32 l-60 19 53 -5 c30 -4 84 -2
120 2 l67 9 -70 6 -70 5 95 3 c52 1 115 6 140 11 33 6 20 7 -50 4 -52 -3 -115
-1 -140 4 l-45 10 65 2 c48 2 31 5 -62 10 -135 8 -283 27 -308 41 -8 4 3 5 25
1 65 -11 413 -7 401 6 -3 2 -79 4 -168 4 -119 0 -154 2 -128 9 19 5 69 10 110
11 63 1 66 2 22 5 -30 2 -55 9 -58 16 -3 8 -17 11 -38 9 -55 -6 -77 3 -36 15
34 11 32 11 -30 13 -36 0 -83 5 -105 9 l-40 9 55 1 c73 2 105 21 35 21 -52 0
-226 28 -235 37 -3 3 32 2 77 -1 89 -8 140 5 63 15 l-45 6 43 1 c68 3 49 22
-22 22 -86 0 -186 11 -186 21 0 4 10 7 23 7 51 -3 117 3 117 10 0 4 -19 6 -42
5 l-43 -3 40 14 c36 13 13 14 -230 13 l-270 -2 -40 -27 c-39 -26 -138 -58
-180 -58 -11 0 9 11 45 24 36 13 93 36 128 50 77 33 229 48 407 40 157 -7 134
10 -35 26 -137 14 -249 8 -324 -15 -64 -19 -70 -13 -14 17 38 20 59 23 193 26
83 1 161 5 175 9 22 6 21 7 -15 14 -22 4 -67 9 -100 10 l-60 2 64 8 c91 12 96
17 16 19 -51 2 -63 4 -45 10 24 8 24 8 -7 9 -31 1 -149 -21 -188 -35 -13 -5
-17 -4 -10 3 13 13 106 49 168 65 26 7 47 15 47 19 0 6 -63 -7 -144 -29 -22
-6 -42 -10 -44 -8 -5 6 101 64 200 109 51 24 104 50 118 59 33 21 45 24 175
47 l110 19 26 -22 c14 -11 36 -34 48 -51 11 -16 21 -24 21 -17 0 6 -18 30 -39
51 l-39 39 30 6 c17 3 54 6 83 6 47 0 56 -4 79 -31 37 -44 52 -75 71 -149 9
-36 28 -86 42 -112 26 -48 118 -145 183 -194 34 -25 170 -98 170 -91 0 2 -37
27 -82 54 -101 62 -195 146 -236 210 -17 27 -42 87 -55 134 -27 92 -40 123
-65 152 -19 22 -15 26 39 36 32 6 36 9 17 10 -16 1 -28 6 -28 12 0 7 9 9 23 5
12 -3 28 -6 35 -6 8 0 10 -5 6 -12 -5 -8 -2 -9 9 -5 9 3 19 2 22 -3 3 -4 -1
-10 -7 -13 -11 -4 35 -9 172 -20 21 -2 25 -8 28 -39 3 -36 2 -37 -35 -41 l-38
-4 38 -1 c20 -1 37 -7 37 -12 0 -7 -27 -9 -77 -6 l-78 5 78 -11 c96 -13 107
-35 20 -41 l-58 -3 57 -2 c46 -2 59 -6 68 -22 6 -11 7 -20 3 -21 -4 0 -35 -1
-68 -1 l-60 0 67 -7 c38 -4 69 -9 71 -12 2 -2 18 -25 35 -50 37 -55 112 -123
164 -150 60 -30 56 -22 -9 20 -66 43 -152 141 -158 181 0 3 -6 15 -13 27 -10
18 -9 22 6 26 15 4 15 5 0 6 -19 1 -28 36 -25 101 2 40 5 45 28 48 34 4 48
-15 59 -81 9 -59 27 -101 68 -157 81 -111 109 -143 159 -182 53 -40 55 -43 32
-49 -20 -6 -18 -7 12 -8 21 -1 42 -8 50 -18 12 -15 12 -16 -4 -10 -27 10 -148
30 -152 25 -3 -2 39 -13 93 -23 54 -10 101 -24 105 -31 4 -8 14 -14 22 -14 7
0 15 -5 17 -11 2 -6 24 -15 48 -19 46 -8 71 -4 33 6 -12 3 -24 12 -27 20 -3 8
-13 14 -21 14 -9 0 -13 4 -10 10 6 10 -40 26 -62 22 -6 -1 -15 3 -19 9 -5 9
-2 10 9 6 11 -4 17 -1 17 8 0 9 -9 15 -23 15 -14 0 -39 16 -62 41 -22 23 -52
49 -66 58 -14 9 -48 43 -75 76 -77 94 -82 103 -28 54 42 -39 227 -198 288
-248 11 -9 16 -10 12 -3 -9 15 -1 15 26 1 15 -8 19 -8 14 0 -10 16 6 13 32 -5
13 -9 26 -14 29 -11 3 3 -14 15 -37 27 -23 12 -39 16 -35 9 5 -7 3 -10 -6 -7
-8 3 -13 11 -11 17 1 7 -2 10 -8 6 -13 -8 -52 19 -42 30 4 5 2 6 -3 2 -13 -7
-220 171 -264 226 -38 48 -64 116 -59 153 l4 29 8 -30 c23 -94 72 -164 155
-223 37 -25 86 -63 110 -85 25 -21 90 -66 145 -101 56 -34 113 -70 129 -80 44
-30 31 -12 -18 23 -25 18 -42 37 -39 43 4 6 2 8 -4 4 -6 -3 -14 -1 -17 5 -4 6
-37 30 -74 53 -59 39 -111 80 -262 206 -25 21 -56 59 -68 84 -28 62 -26 82 3
26 13 -25 49 -69 79 -97 67 -63 303 -220 407 -271 41 -20 87 -44 103 -55 15
-10 27 -14 27 -9 0 6 -48 38 -107 73 -140 81 -369 239 -413 284 -37 39 -47 44
245 -135 39 -24 85 -56 103 -71 18 -16 35 -29 38 -29 15 0 -64 78 -100 99 -23
13 -50 32 -61 41 -11 9 -68 47 -128 84 -124 79 -148 104 -194 206 -19 41 -44
86 -56 100 l-22 24 25 -16 c14 -8 41 -47 60 -86 19 -39 43 -80 54 -91 10 -11
91 -66 180 -122 88 -56 166 -107 171 -113 15 -17 137 -87 142 -82 2 2 -10 14
-26 26 -17 11 -54 41 -83 66 -29 24 -70 53 -92 64 -48 23 -105 60 -93 60 4 0
33 -13 65 -29 32 -16 94 -43 139 -61 45 -17 116 -53 157 -80 41 -27 89 -56
105 -65 17 -8 61 -42 98 -75 77 -69 113 -82 40 -15 -61 56 -53 58 17 5 29 -22
56 -40 61 -40 12 0 103 -67 195 -145 47 -39 99 -80 115 -89 l30 -18 -30 23
c-16 13 -73 59 -125 103 -90 74 -252 189 -323 229 -18 10 -31 22 -30 27 2 5
-16 23 -40 40 l-42 32 40 -36 c45 -40 39 -49 -9 -13 -59 45 -231 142 -291 165
-33 13 -78 31 -100 42 -22 10 -50 21 -62 25 -21 6 -75 52 -101 87 -17 21 -27
108 -13 108 13 0 54 -55 76 -103 28 -61 127 -117 360 -204 66 -25 107 -46 152
-80 51 -39 48 -17 -5 40 -51 53 -30 46 36 -13 97 -87 77 -54 -35 56 -112 111
-112 114 2 28 37 -29 100 -71 139 -94 39 -24 82 -50 96 -59 24 -15 24 -15 10
3 -8 10 -64 51 -125 92 -62 40 -120 84 -131 96 -12 14 -1 9 33 -14 28 -20 88
-60 133 -88 45 -28 106 -71 135 -95 65 -56 78 -58 28 -4 -21 23 -37 46 -35 51
1 5 -2 6 -8 3 -6 -4 -19 0 -28 8 -9 9 -102 72 -206 141 -103 69 -185 126 -181
126 13 0 136 -70 188 -107 26 -18 89 -56 140 -84 97 -54 140 -86 131 -100 -2
-5 18 -20 47 -34 53 -27 62 -43 14 -25 -15 6 -30 9 -32 6 -2 -2 31 -16 74 -32
60 -22 88 -39 123 -75 25 -25 57 -54 73 -64 32 -21 36 -40 5 -25 -13 7 -5 -4
17 -24 22 -19 44 -35 49 -36 4 0 45 -22 90 -50 45 -27 110 -62 144 -78 34 -16
68 -34 75 -39 6 -5 37 -15 67 -22 30 -8 63 -18 73 -23 42 -22 4 -15 -108 18
-66 20 -124 36 -130 37 -5 1 -16 8 -23 15 -7 6 -19 12 -25 12 -7 0 -6 -5 3
-11 12 -8 11 -9 -5 -5 -88 22 -176 51 -204 69 -19 11 -31 16 -27 9 4 -6 45
-32 92 -58 47 -25 83 -48 81 -50 -2 -2 -32 7 -67 21 -73 29 -91 26 -31 -5 23
-11 41 -24 41 -28 0 -4 14 -13 32 -20 61 -23 22 -19 -90 8 -95 24 -124 36
-185 77 -96 66 -106 72 -88 50 7 -9 10 -17 7 -17 -20 0 -190 130 -234 179 -21
23 -22 23 -13 4 12 -23 113 -108 191 -160 68 -45 74 -48 65 -33 -5 8 -3 11 6
8 8 -3 14 -10 14 -17 0 -14 26 -32 37 -25 4 3 8 0 8 -6 0 -6 5 -8 10 -5 6 3
10 2 10 -4 0 -10 50 -40 113 -68 19 -9 26 -9 21 -1 -5 8 -2 9 10 5 10 -4 20
-7 22 -7 3 0 3 -4 -1 -9 -3 -6 16 -13 42 -17 27 -3 125 -26 218 -49 94 -24
181 -46 195 -49 14 -3 -5 -3 -42 -1 -37 2 -127 20 -200 39 -134 36 -352 91
-398 101 -22 5 -21 3 5 -10 33 -16 192 -67 355 -115 93 -27 99 -30 51 -25 -81
7 -192 36 -184 48 4 6 0 8 -11 4 -9 -4 -67 7 -129 24 -125 35 -171 43 -162 30
6 -10 73 -33 240 -81 142 -41 139 -40 133 -45 -6 -6 -201 39 -257 59 -50 18
-73 21 -51 5 12 -8 11 -9 -5 -5 -11 3 -47 12 -81 20 -33 9 -79 22 -102 30 -23
8 -42 12 -42 7 0 -9 117 -52 250 -91 52 -16 84 -29 71 -29 -13 -1 -82 17 -153
39 -72 22 -139 40 -149 40 -30 0 -182 64 -230 97 -24 17 -96 55 -159 86 -102
49 -189 106 -164 108 22 1 -45 21 -81 24 -145 10 -266 13 -230 5 22 -5 85 -12
140 -15 55 -4 111 -9 125 -12 23 -6 23 -7 -10 -13 -35 -7 -35 -7 10 -9 76 -3
105 -42 40 -54 -14 -2 -3 -5 25 -6 44 -2 143 -39 106 -41 -27 0 -4 -10 66 -29
46 -12 96 -35 142 -65 48 -32 103 -58 169 -78 137 -42 157 -49 109 -42 -21 3
-46 7 -55 10 -43 12 30 -18 88 -36 60 -18 62 -19 20 -15 -77 10 -278 84 -448
165 -90 44 -193 89 -230 100 -108 34 -466 129 -470 126 -4 -5 96 -35 323 -96
142 -38 216 -64 293 -103 57 -28 106 -55 108 -59 5 -8 -71 16 -121 37 -16 8
-55 19 -85 25 -30 7 -102 25 -159 41 -119 33 -114 32 -106 19 3 -5 17 -10 31
-10 13 0 24 -4 24 -10 0 -5 12 -10 28 -11 15 0 36 -4 47 -9 14 -6 2 -9 -45
-11 -53 -2 -46 -3 42 -9 62 -3 113 -11 120 -18 7 -7 20 -12 31 -12 23 0 119
-30 132 -41 5 -5 20 -9 34 -9 47 0 12 -12 -61 -20 -66 -8 -64 -8 27 -4 130 7
191 -14 133 -45 -17 -8 -18 -10 -3 -5 45 16 87 15 132 -2 26 -9 52 -21 57 -25
13 -11 -118 -22 -187 -15 -131 14 -373 65 -526 111 -46 14 -86 23 -88 21 -4
-4 123 -47 242 -82 l60 -18 -45 -7 c-38 -5 -33 -6 30 -6 41 0 86 -3 100 -5
171 -37 368 -49 424 -28 14 5 54 3 107 -7 64 -11 92 -12 115 -4 62 22 446 -71
427 -103 -4 -5 -7 -26 -7 -45 l-1 -36 -52 1 c-29 1 -51 -2 -48 -6 3 -5 -5 -10
-17 -12 -21 -3 -21 -4 4 -9 17 -4 25 -2 21 4 -4 6 11 8 42 5 41 -5 55 -13 87
-48 l38 -41 -23 -32 c-13 -18 -27 -39 -31 -47 -4 -8 0 -6 8 5 47 63 45 61 56
45 5 -8 13 -36 16 -62 8 -58 27 -79 44 -48 9 16 9 25 0 35 -8 10 -8 19 -1 34
9 16 6 25 -12 48 -43 53 -49 63 -43 63 4 0 19 -12 33 -27 21 -23 24 -24 14 -6
-6 12 -31 36 -56 53 -49 34 -48 31 -49 111 l-1 55 80 -12 c44 -8 142 -18 219
-23 138 -10 169 -7 188 23 11 16 10 56 -2 56 -5 0 -10 5 -10 10 0 6 18 10 40
10 22 0 48 4 58 9 9 6 29 12 45 16 35 7 34 26 -3 48 -29 18 -40 37 -20 37 21
0 9 20 -15 26 -30 7 -33 34 -4 34 11 0 29 5 40 11 19 10 20 12 4 29 -9 10 -27
21 -41 24 -21 6 -23 9 -14 26 6 11 24 27 40 35 52 27 35 55 -40 69 -23 4 -39
14 -45 28 -7 15 -30 28 -80 43 -126 39 -251 94 -366 161 -141 82 -155 92 -248
177 -160 145 -353 254 -672 381 -348 138 -454 159 -849 161 -146 1 -317 4
-380 8 -63 3 -151 1 -195 -4z m1129 -124 c105 -30 180 -67 266 -131 84 -62
242 -164 253 -164 5 0 -38 34 -97 76 -58 41 -108 79 -111 84 -3 5 40 -20 96
-55 56 -36 107 -65 112 -65 14 0 17 -2 -106 80 -59 40 -110 76 -113 81 -4 7
59 -17 179 -69 65 -29 59 -19 -10 17 -32 17 -53 30 -48 31 15 0 228 -109 323
-165 77 -46 213 -145 198 -145 -3 0 -18 7 -31 16 -14 9 -25 14 -25 11 0 -11
193 -148 292 -207 59 -35 106 -65 104 -67 -2 -2 -85 32 -185 75 -100 44 -181
78 -181 76 0 -1 28 -20 63 -41 83 -51 222 -113 375 -169 117 -42 172 -67 112
-49 -55 16 -412 146 -440 160 -17 9 -30 12 -30 7 0 -5 44 -30 98 -55 53 -26
94 -47 91 -47 -14 0 -119 40 -166 64 -124 62 -54 5 90 -74 20 -11 37 -23 37
-26 0 -3 -19 6 -42 20 -68 40 -149 79 -155 73 -3 -3 22 -19 55 -36 33 -17 64
-36 68 -42 8 -14 16 -17 -119 49 -59 28 -136 71 -169 94 -37 24 -73 41 -90 41
-17 0 -24 3 -17 8 8 4 -2 14 -28 27 -22 11 -56 41 -76 66 -25 30 -69 63 -130
97 -50 29 -126 74 -166 102 -82 55 -241 133 -395 193 -126 49 -102 57 30 10
100 -36 341 -165 491 -262 83 -54 156 -94 138 -77 -51 50 -340 234 -480 306
-27 14 -44 26 -37 27 27 1 199 -95 331 -184 128 -88 197 -126 225 -126 6 0
-19 18 -56 40 -37 21 -120 77 -185 124 -131 94 -239 151 -358 191 -44 15 -82
29 -84 31 -10 9 21 3 103 -21z m-2254 -734 c-91 -29 -135 -49 -127 -58 5 -4
134 30 207 53 8 3 11 2 7 -2 -4 -4 -44 -19 -89 -34 -86 -28 -211 -80 -205 -86
2 -2 37 7 77 21 98 33 101 25 3 -11 -66 -24 -74 -29 -53 -35 14 -4 20 -7 13
-8 -7 -1 -24 -12 -39 -26 -33 -31 -54 -33 -28 -3 20 23 20 23 -48 -6 -21 -9
-38 -12 -38 -7 0 5 23 18 50 30 62 27 64 34 5 17 -25 -8 -42 -10 -39 -5 3 5
11 9 18 9 18 0 65 39 48 40 -7 0 -35 -11 -62 -25 -28 -14 -50 -21 -50 -17 0 5
33 24 73 42 39 18 74 36 77 40 17 23 216 99 260 99 14 0 -13 -13 -60 -28z
m610 -199 c-64 -22 -93 -26 -200 -26 -161 -1 -334 14 -321 27 6 6 101 9 248 9
131 -1 254 2 273 7 72 18 72 8 0 -17z m-815 -128 c13 -5 14 -9 4 -15 -10 -6
-6 -11 14 -18 15 -6 27 -12 27 -13 0 -2 -26 -2 -57 0 -42 2 -54 0 -43 -7 8 -6
28 -11 43 -11 40 0 97 -26 97 -45 0 -10 -5 -13 -12 -9 -15 9 -132 34 -137 28
-2 -2 11 -11 30 -19 l34 -16 -44 6 c-39 5 -43 4 -31 -10 10 -13 9 -15 -6 -16
-11 0 2 -7 27 -15 26 -7 52 -20 58 -28 11 -12 6 -12 -35 0 -55 16 -87 19 -65
5 10 -6 -2 -12 -40 -19 -40 -7 -46 -10 -24 -12 29 -1 29 -2 -10 -14 -40 -12
-65 -4 -65 22 0 15 60 86 83 99 19 10 19 12 4 13 -15 0 -16 3 -6 21 9 17 8 23
-2 30 -11 7 -10 9 4 9 9 0 16 3 16 8 -5 27 4 32 60 32 33 0 67 -3 76 -6z m421
-2328 c-33 -55 -106 -218 -106 -237 0 -5 -4 -9 -10 -9 -15 0 -12 24 10 75 27
63 25 70 -5 15 -21 -40 -24 -42 -25 -19 0 15 12 53 26 85 27 63 19 64 -14 1
-11 -21 -22 -35 -25 -30 -4 8 -18 56 -22 78 -1 6 -3 12 -4 15 -2 3 -4 14 -5
25 -2 11 -6 34 -10 50 l-7 30 68 1 c80 1 141 8 151 19 4 4 8 -4 10 -17 2 -14
-12 -48 -32 -82z m43 -764 c97 -193 254 -381 456 -547 147 -121 374 -288 455
-335 39 -23 85 -54 103 -69 18 -15 60 -43 94 -61 34 -18 79 -47 100 -64 21
-18 64 -44 96 -59 31 -14 57 -29 57 -32 0 -17 -118 -137 -167 -171 -30 -21
-70 -57 -88 -81 l-32 -42 -51 82 c-51 84 -78 117 -143 172 -74 64 -361 397
-464 540 -189 260 -465 687 -465 717 0 16 2 28 5 28 3 0 22 -35 44 -78z m208
-793 c46 -22 71 -42 93 -75 36 -52 60 -123 60 -180 0 -36 -4 -43 -35 -59 -19
-11 -33 -21 -30 -23 2 -2 14 2 27 9 21 11 22 11 9 -4 -7 -10 -28 -21 -45 -26
-29 -8 -29 -9 -6 -10 14 -1 36 6 48 15 l22 15 -2 -79 -2 -80 -59 -13 c-37 -8
-65 -9 -74 -3 -18 11 -19 27 -2 33 7 2 9 -1 5 -8 -4 -6 -4 -11 1 -11 12 1 43
26 43 36 0 4 -5 3 -12 -4 -19 -19 -32 -14 -17 6 11 14 11 15 -1 5 -18 -17 -33
-16 -27 0 3 8 1 20 -3 28 -7 10 -11 8 -19 -11 -9 -24 -10 -24 -10 -3 -1 12 4
25 9 28 6 3 10 11 10 17 0 7 -5 7 -14 -1 -17 -15 -27 7 -19 40 4 14 2 20 -4
16 -26 -16 -21 -62 13 -125 19 -35 31 -62 27 -60 -33 14 -83 57 -86 73 -3 15
-5 13 -6 -7 -1 -20 7 -31 29 -45 40 -23 38 -31 -7 -36 -33 -3 -32 -4 12 -5 28
-1 100 5 161 14 105 15 114 15 148 -1 47 -22 64 -57 56 -111 -8 -55 -34 -92
-68 -99 -15 -3 -49 -12 -77 -20 -44 -13 -51 -13 -65 1 -14 15 -13 16 6 10 17
-5 21 -2 20 16 -2 35 -25 106 -37 114 -16 9 -24 -5 -11 -18 7 -7 12 -19 11
-27 0 -11 -3 -10 -9 4 -8 18 -9 18 -9 2 -1 -10 6 -31 14 -47 18 -36 10 -38
-23 -7 l-24 22 7 -25 c14 -46 46 -72 83 -66 19 3 30 1 27 -5 -4 -5 -17 -9 -29
-9 -13 0 -30 -8 -37 -17 -12 -15 -12 -16 4 -10 9 3 17 3 17 -1 0 -9 -49 -32
-69 -32 -14 0 -14 -2 -1 -11 22 -16 -120 -5 -150 11 -16 8 -20 15 -12 18 10 3
10 7 1 18 -6 8 -16 11 -22 7 -5 -3 -7 -2 -4 4 3 5 2 23 -3 39 l-10 29 4 -27
c5 -44 -12 -32 -22 15 l-10 42 2 -47 c2 -54 27 -88 91 -120 34 -18 57 -21 150
-19 60 0 145 4 187 7 63 5 90 2 150 -16 94 -28 160 -64 188 -103 22 -29 23
-34 11 -91 -7 -34 -20 -72 -30 -86 -22 -31 -68 -37 -112 -14 -27 14 -69 17
-237 20 -129 1 -208 6 -215 13 -18 18 -29 12 -22 -11 6 -23 6 -23 -15 1 -11
13 -23 21 -26 18 -3 -3 7 -17 23 -32 25 -23 33 -26 73 -19 70 10 375 8 393 -3
4 -3 1 -16 -8 -29 -9 -15 -11 -24 -4 -24 6 0 13 9 16 20 5 19 22 28 24 13 0
-5 2 -25 5 -45 4 -29 1 -38 -11 -38 -8 0 -15 -8 -15 -17 0 -15 2 -16 10 -3 6
10 10 11 10 3 0 -7 -9 -18 -20 -25 -11 -7 -20 -18 -20 -25 0 -19 -65 -48 -135
-59 -5 -1 -12 -3 -15 -4 -3 -1 -16 -3 -29 -6 -19 -3 -22 -1 -17 13 6 16 6 16
-12 0 -24 -22 -85 -20 -77 2 5 11 3 12 -10 1 -20 -17 -65 -22 -65 -8 0 6 -6 6
-15 -2 -8 -7 -15 -20 -15 -29 0 -11 3 -12 8 -4 9 14 54 13 64 -2 5 -6 8 -6 8
3 0 6 5 12 11 12 5 0 7 -6 3 -12 -6 -10 -4 -10 8 0 11 9 23 10 41 3 14 -5 28
-7 32 -3 4 4 4 -4 1 -18 -7 -24 -6 -24 8 -6 18 22 57 29 68 12 5 -8 8 -7 8 2
0 6 7 12 15 12 9 0 42 13 74 30 l59 29 1 -80 c1 -74 -12 -129 -27 -115 -3 4
-15 -2 -26 -12 -12 -10 -55 -33 -97 -50 -62 -25 -87 -31 -130 -27 -30 2 -56 5
-59 6 -3 1 -9 1 -14 0 -4 -1 -15 4 -24 11 -14 12 -14 11 -1 -10 8 -12 20 -20
27 -17 7 3 10 0 7 -5 -3 -6 -24 -10 -45 -10 -31 0 -38 3 -34 15 5 12 10 13 20
4 8 -6 14 -7 14 -3 0 5 -9 15 -21 22 -12 8 -18 9 -14 3 3 -6 -1 -12 -9 -12 -9
-1 -22 -2 -28 -3 -7 -1 -29 6 -48 16 -23 12 -36 14 -41 7 -13 -22 -36 30 -32
73 5 51 -3 47 -16 -8 -5 -23 -9 -30 -10 -16 -1 12 -6 22 -12 22 -7 0 -9 -10
-5 -25 4 -14 3 -25 -2 -25 -11 0 -42 55 -42 77 0 15 -2 16 -10 3 -5 -8 -7 -26
-3 -40 4 -20 3 -23 -7 -13 -8 7 -14 42 -16 82 -2 65 -21 122 -44 136 -5 3 -1
-11 11 -32 l21 -38 -30 33 c-24 27 -31 30 -36 17 -4 -10 -2 -14 6 -9 7 4 8 3
4 -4 -4 -6 -1 -20 6 -32 14 -21 34 -29 22 -8 -4 7 0 6 8 -2 9 -8 18 -41 21
-72 5 -55 5 -57 -14 -48 -10 6 -19 15 -19 19 0 5 -9 7 -19 4 -13 -3 -24 2 -33
16 -7 12 -19 21 -26 21 -7 0 -17 12 -23 27 -6 15 -15 30 -20 34 -5 3 -25 30
-44 59 -29 44 -35 65 -36 110 -1 52 -2 53 -10 20 -10 -45 5 -105 38 -144 14
-17 21 -32 16 -33 -10 -4 22 -111 38 -127 15 -17 10 -29 -7 -15 -20 17 -42 59
-54 106 l-10 38 4 -36 c11 -98 56 -143 143 -143 29 0 53 -4 53 -8 0 -4 10 -8
22 -8 l22 0 -22 -16 c-26 -18 -90 -12 -98 9 -2 7 -19 14 -37 15 -38 3 -40 5
-72 67 -14 28 -23 41 -19 30 4 -11 9 -30 12 -43 2 -13 18 -36 34 -52 16 -17
24 -30 17 -30 -6 0 -28 17 -48 38 -26 27 -31 30 -18 10 26 -42 21 -42 -27 -4
-24 20 -54 58 -67 84 -30 60 -28 56 -34 50 -8 -8 31 -93 65 -143 17 -25 27
-45 22 -45 -19 0 -60 40 -72 71 -11 26 -15 29 -20 15 -7 -21 -11 182 -4 205 4
14 10 12 35 -12 17 -16 39 -29 48 -29 14 1 14 2 -1 11 -13 7 -18 23 -18 54 0
27 -5 45 -11 45 -8 0 -10 -14 -6 -42 5 -39 4 -41 -9 -24 -19 27 -18 124 2 194
14 46 28 68 75 114 32 31 68 62 79 68 20 11 20 9 -5 -39 -14 -28 -25 -58 -25
-68 0 -28 15 -3 40 67 13 36 33 76 46 90 33 37 54 96 65 184 15 116 49 170
135 212 54 27 71 41 34 29 -24 -8 -25 3 -4 33 22 32 64 160 64 196 0 17 -16
81 -35 141 -41 130 -44 170 -12 203 19 21 28 23 67 18 25 -3 73 -20 107 -37z
m1988 -176 c-4 -10 -6 -88 -6 -173 1 -152 1 -156 -27 -202 l-27 -46 -154 125
c-84 69 -170 131 -190 137 l-36 13 30 15 c19 9 66 16 128 17 54 2 112 7 129
12 42 12 99 52 127 89 24 33 37 39 26 13z m-793 -405 l36 -43 -23 -170 c-14
-94 -45 -280 -70 -415 -29 -160 -59 -373 -86 -615 -22 -203 -42 -371 -45 -374
-2 -2 -4 1 -4 8 0 7 -29 207 -65 444 -36 238 -86 569 -111 737 -34 234 -53
329 -79 409 -19 58 -33 106 -31 108 5 5 81 -115 107 -169 13 -27 27 -48 33
-48 5 0 40 30 76 68 37 37 91 88 121 114 l54 47 25 -29 c14 -15 42 -48 62 -72z
m-1622 -368 c0 -5 -34 -35 -75 -65 -119 -88 -140 -127 -176 -315 -22 -116 -26
-272 -9 -385 22 -150 29 -224 32 -332 3 -101 1 -114 -17 -132 -16 -16 -27 -18
-55 -13 -46 10 -48 27 -14 143 24 85 26 103 21 213 -6 137 -32 252 -73 321
-37 64 -40 50 -5 -26 32 -67 61 -208 61 -291 l0 -49 -41 33 c-34 27 -43 30
-59 20 -23 -14 -23 -15 -45 208 l-15 155 44 132 c36 107 55 147 100 210 68 95
147 151 240 169 79 16 86 16 86 4z m155 -797 c-10 -15 -81 -113 -158 -217 -76
-104 -141 -196 -144 -203 -3 -7 -11 -13 -18 -13 -29 0 -36 30 -38 164 l-2 136
55 21 c30 11 68 22 84 24 16 2 34 11 38 20 5 8 15 15 22 15 6 0 46 22 87 49
78 52 106 53 74 4z"/>
<path d="M2960 6465 c0 -2 18 -14 41 -25 23 -12 39 -23 37 -24 -1 -2 -40 -19
-85 -39 -45 -19 -135 -66 -200 -104 -65 -39 -136 -77 -158 -87 l-40 -16 35 6
c40 7 112 42 187 90 71 45 186 103 251 125 39 14 59 16 79 8 14 -5 65 -14 114
-19 48 -5 109 -18 135 -29 32 -15 43 -17 34 -6 -17 20 -114 48 -185 52 -87 6
-99 19 -26 27 35 4 72 11 84 16 38 15 -42 12 -126 -6 l-75 -15 -51 26 c-28 14
-51 23 -51 20z"/>
<path d="M4957 5977 c5 -25 -53 -120 -68 -111 -5 3 -22 -4 -38 -15 -16 -12
-36 -18 -45 -15 -8 3 -60 -2 -115 -11 -55 -9 -106 -13 -112 -9 -8 4 -9 3 -5
-4 4 -7 37 -12 79 -13 73 -1 73 -3 3 -14 -26 -4 -35 -9 -27 -15 9 -5 2 -15
-25 -36 -53 -38 -64 -49 -35 -34 13 7 44 27 68 46 27 20 55 34 71 33 25 -1 25
-1 -7 -10 -56 -17 -26 -22 51 -9 86 15 152 45 144 65 -3 8 -1 17 5 21 43 26
86 132 60 148 -4 3 -6 -5 -4 -17z"/>
<path d="M3884 5929 c-3 -5 6 -19 19 -30 14 -10 33 -43 43 -72 9 -28 23 -59
31 -69 16 -18 12 -22 -30 -32 -22 -5 -28 -4 -24 6 2 7 11 12 18 11 8 -2 6 3
-4 10 -10 6 -47 33 -82 60 -35 26 -67 47 -70 47 -15 0 18 -30 66 -61 27 -17
48 -33 47 -35 -8 -8 -133 45 -144 61 -8 10 -17 15 -21 11 -13 -12 31 -43 95
-66 34 -12 62 -25 62 -27 0 -9 -85 9 -114 24 -15 8 -47 32 -70 52 -52 48 -77
61 -115 61 -45 0 -38 -16 9 -24 25 -4 55 -19 78 -39 20 -19 48 -41 62 -50 35
-24 12 -21 -29 4 -18 11 -35 18 -37 16 -9 -9 47 -37 105 -53 34 -10 59 -19 57
-22 -12 -12 -149 23 -208 53 -74 37 -90 39 -30 4 20 -12 51 -36 69 -52 25 -24
35 -28 46 -19 10 8 31 9 73 2 l59 -9 -65 3 c-58 3 -62 2 -37 -9 16 -6 44 -11
63 -10 19 2 34 1 34 -1 0 -12 -25 -54 -32 -54 -5 0 -3 10 3 23 12 21 11 21 -7
7 -10 -8 -21 -18 -24 -22 -3 -4 -25 -2 -50 3 -49 11 -180 8 -180 -3 0 -5 12
-9 28 -9 15 -1 41 -3 57 -4 17 -2 40 -3 53 -4 15 -1 21 -5 16 -13 -4 -7 -3 -8
5 -4 6 4 34 2 61 -5 38 -10 60 -10 99 -1 29 6 60 8 72 4 30 -11 125 4 174 28
22 11 36 20 32 20 -5 0 3 14 17 31 14 17 26 34 26 39 0 4 25 20 56 36 30 15
58 32 61 38 4 6 -15 -2 -41 -18 -26 -15 -51 -25 -54 -21 -4 4 -2 10 4 12 6 2
10 18 8 35 -2 18 0 34 4 37 5 3 4 26 -1 51 -10 44 -10 44 -18 17 -4 -16 -5
-35 -2 -43 5 -14 -12 -20 -20 -6 -5 9 3 -17 11 -37 4 -10 1 -12 -9 -6 -12 8
-12 6 -1 -8 19 -22 6 -42 -16 -25 -14 10 -15 10 -4 -2 19 -22 14 -44 -19 -83
-35 -41 -45 -45 -52 -19 -4 13 -5 12 -6 -4 -1 -23 -31 -43 -31 -21 0 8 -3 9
-8 1 -10 -15 -42 -25 -42 -13 0 6 -5 7 -12 3 -7 -4 -8 -3 -4 5 4 6 12 9 17 6
5 -4 9 -1 9 5 0 6 5 8 10 5 6 -3 10 3 10 14 0 12 -5 21 -10 21 -6 0 1 17 15
37 26 40 35 72 10 39 -14 -18 -15 -18 -15 -2 0 9 -7 24 -15 32 -8 9 -15 33
-15 55 0 21 -4 39 -9 39 -13 0 -1 -81 15 -104 13 -19 9 -46 -8 -46 -6 0 -8 7
-5 15 4 8 0 27 -8 42 -8 15 -15 39 -15 53 0 14 -5 32 -10 40 -8 12 -10 10 -10
-10 0 -23 -2 -22 -22 12 -23 39 -43 54 -54 37z"/>
<path d="M2815 5524 c45 -82 67 -108 119 -141 59 -38 35 -51 -56 -31 -40 9
-74 15 -76 13 -7 -7 94 -35 125 -35 22 0 57 15 101 41 37 23 81 50 99 61 18
11 37 17 42 14 5 -3 11 -1 13 5 2 6 31 1 78 -16 l75 -25 -50 4 c-46 5 -47 4
-18 -6 21 -7 44 -7 70 -1 41 11 41 11 -49 38 -32 9 -60 21 -64 26 -8 13 10 11
24 -3 9 -9 20 -9 48 1 30 11 38 11 52 -2 11 -9 24 -12 37 -7 11 4 26 3 33 -3
8 -6 23 -12 34 -14 18 -3 19 -1 8 12 -7 9 -19 14 -27 11 -11 -4 -11 -1 -2 15
8 15 17 19 32 15 12 -3 26 -6 30 -6 5 0 5 -5 2 -10 -5 -8 -11 -7 -21 0 -7 7
-18 10 -24 8 -6 -2 4 -12 21 -22 18 -10 29 -14 26 -8 -4 5 0 13 9 16 9 4 14
13 10 21 -8 22 23 19 85 -9 33 -15 46 -25 34 -26 -30 -2 -163 -48 -140 -49 11
0 38 6 60 14 47 17 91 19 100 5 6 -10 -86 -59 -115 -61 -10 0 -11 -2 -2 -6 6
-2 9 -9 6 -15 -3 -5 13 0 36 12 23 12 48 19 56 16 8 -3 13 -2 10 2 -9 14 64
34 99 28 69 -13 43 32 -32 54 -36 11 -42 17 -45 44 -3 25 0 32 14 33 10 1 17
-3 15 -9 -1 -6 3 -12 10 -15 7 -3 9 3 6 17 -4 13 1 26 13 36 18 15 18 15 1 10
-60 -19 -70 -19 -64 -1 6 14 4 16 -10 9 -10 -4 -36 -8 -58 -9 -22 0 -45 -4
-52 -8 -7 -4 -56 -9 -110 -11 -54 -1 -108 -8 -120 -14 -12 -7 -31 -12 -42 -12
-12 0 -21 -4 -21 -10 0 -6 -27 -10 -61 -10 -38 0 -58 -4 -54 -10 4 -6 10 -8
14 -6 4 3 13 1 21 -4 10 -6 2 -11 -25 -16 -21 -4 -49 -18 -62 -30 -13 -13 -30
-24 -38 -24 -8 0 -14 -6 -12 -12 2 -15 -44 -23 -79 -14 -34 9 -106 76 -100 93
3 7 1 13 -4 13 -5 0 -19 18 -30 39 -11 22 -25 43 -32 47 -6 4 6 -24 27 -62z"/>
<path d="M1670 5479 c7 -13 21 -34 32 -46 20 -21 20 -21 0 -32 -12 -6 -28 -11
-36 -11 -9 0 -16 -5 -16 -11 0 -11 40 -8 72 5 13 6 21 -1 33 -30 l15 -37 -34
-32 c-35 -32 -41 -47 -50 -120 -2 -22 -8 -61 -12 -87 -4 -31 -3 -48 4 -48 5 0
13 21 17 46 3 26 10 55 14 66 6 18 8 17 31 -7 22 -23 22 -25 5 -20 -16 6 -17
5 -5 -4 11 -8 18 -7 27 5 14 19 -1 59 -25 69 -12 4 -12 1 2 -20 19 -29 7 -34
-18 -6 -17 19 -13 77 5 65 5 -3 6 1 4 8 -3 8 7 21 24 31 35 21 41 21 41 3 0
-8 3 -16 8 -18 9 -4 65 -108 58 -108 -10 0 -46 44 -46 57 0 7 -9 22 -19 32
-19 19 -19 19 -15 -17 3 -28 2 -32 -5 -17 -5 11 -12 29 -15 39 -4 10 -9 16
-12 13 -14 -14 17 -73 44 -85 33 -14 66 -68 60 -97 -4 -17 -7 -15 -26 15 -12
19 -22 29 -22 22 0 -7 -5 -10 -11 -6 -6 3 -3 -9 6 -27 23 -44 29 -50 21 -19
-7 24 -6 24 8 6 11 -14 12 -21 3 -31 -15 -16 -34 -9 -72 24 -26 23 -25 21 4
-12 42 -44 30 -49 -19 -7 -19 16 -36 27 -39 25 -5 -6 -10 -2 62 -54 58 -42 71
-63 25 -41 -22 10 -22 10 -4 -4 10 -8 24 -17 30 -19 6 -2 9 -7 6 -10 -3 -4
-19 0 -34 9 -16 8 -31 13 -33 11 -2 -2 13 -12 32 -23 50 -26 155 -128 155
-149 0 -14 -8 -10 -39 18 -45 41 -92 54 -136 37 -32 -12 -75 -48 -75 -62 0
-15 37 -8 61 11 37 29 65 34 97 17 36 -19 56 -43 57 -69 0 -30 21 -32 50 -3
41 41 34 77 -26 128 -84 71 -97 114 -54 183 43 70 36 96 -73 274 -29 46 -52
90 -52 98 0 12 -72 84 -92 92 -6 2 -4 -7 2 -20z"/>
<path d="M1492 5325 c-6 -14 -18 -25 -26 -25 -8 0 -18 -4 -21 -10 -8 -13 14
-52 26 -45 5 4 9 -4 9 -17 0 -18 -2 -20 -10 -8 -6 9 -10 10 -10 3 0 -6 4 -14
9 -17 4 -3 11 -45 14 -93 3 -49 17 -137 31 -196 15 -60 24 -112 21 -117 -3 -4
0 -10 5 -12 6 -2 13 -20 17 -41 4 -25 20 -53 49 -85 36 -39 43 -52 38 -74 -7
-33 11 -38 19 -6 4 12 9 19 12 16 4 -3 2 -15 -4 -27 -6 -11 -8 -21 -4 -24 11
-5 48 36 49 54 1 8 5 28 9 44 7 29 7 29 -10 10 -16 -20 -16 -20 -12 2 3 13 1
26 -4 29 -5 3 -9 -2 -9 -10 0 -26 -21 -29 -45 -6 -26 25 -22 46 16 83 23 22
26 45 3 26 -8 -7 -22 -26 -31 -42 -10 -20 -18 -26 -25 -19 -7 7 -6 18 2 33 10
19 10 22 0 12 -10 -9 -17 -4 -32 25 -18 35 -18 38 -1 50 68 51 75 65 11 20
l-27 -19 -15 53 c-38 130 -55 248 -37 248 5 0 4 14 -2 31 -11 29 -10 33 21 60
34 31 31 39 -6 13 -21 -14 -22 -14 -22 5 0 11 8 22 18 24 16 4 16 5 0 6 -14 1
-17 8 -13 36 5 42 2 44 -13 10z"/>
<path d="M4557 4842 c4 -27 0 -43 -11 -54 -9 -9 -16 -24 -16 -32 0 -30 -16
-16 -18 16 -5 67 -17 45 -14 -24 3 -50 1 -69 -7 -64 -16 11 -13 -10 4 -24 22
-18 19 -33 -4 -20 -11 5 -44 9 -73 8 l-53 -1 60 -6 c33 -4 71 -12 83 -20 29
-15 22 -27 -6 -12 -36 19 -36 12 -1 -12 43 -29 59 -60 59 -119 0 -39 -3 -48
-17 -48 -14 0 -15 -2 -5 -9 11 -6 7 -13 -14 -30 -14 -11 -32 -21 -40 -21 -7 0
-21 -3 -31 -7 -16 -6 -16 -5 -4 11 8 10 23 15 33 12 15 -3 17 -1 9 8 -8 9 -3
20 18 40 25 24 29 39 22 78 -2 11 -62 40 -69 34 -3 -3 -1 -6 5 -6 6 0 22 -9
37 -21 21 -17 24 -24 16 -40 -6 -10 -18 -19 -28 -19 -14 0 -15 2 -2 10 12 8
13 11 2 22 -11 11 -13 10 -10 -2 2 -10 -9 -17 -37 -21 l-40 -6 38 -2 c25 -1
37 -6 37 -15 0 -17 -17 -30 -22 -17 -1 5 -16 12 -33 16 l-30 6 30 -16 30 -15
-40 3 c-22 2 -71 -2 -110 -9 l-70 -14 93 4 c53 2 92 0 92 -6 0 -5 -10 -6 -21
-3 -15 5 -19 4 -15 -4 11 -17 -119 -14 -152 3 -15 8 -41 29 -59 48 l-32 33 42
3 c53 3 114 20 122 32 4 6 -2 7 -17 1 -28 -10 -94 -15 -158 -12 l-45 3 30 13
c17 8 26 14 20 15 -19 1 -144 -64 -150 -78 -4 -10 1 -11 18 -6 12 4 29 7 37 6
84 -8 90 -10 133 -54 41 -42 47 -45 113 -51 38 -4 85 -2 104 3 22 6 38 6 44 0
22 -22 76 -11 114 24 35 33 37 37 37 98 0 49 -7 78 -32 133 -29 65 -31 75 -21
115 6 25 17 52 24 60 19 23 23 100 5 100 -5 0 -7 -17 -4 -38z"/>
<path d="M3835 4649 c1 -9 -6 -21 -17 -28 -11 -7 -26 -28 -34 -47 -8 -18 -19
-34 -24 -34 -6 0 -10 -7 -10 -16 0 -13 8 -9 29 14 l29 30 -5 -51 c-8 -95 46
-163 145 -183 26 -5 33 -3 38 12 3 11 10 27 15 36 16 30 10 30 -15 1 -13 -15
-27 -25 -31 -21 -4 4 2 17 14 29 12 13 21 27 21 32 0 5 -12 -5 -26 -22 -14
-17 -31 -31 -36 -31 -6 0 -4 8 4 18 8 9 18 24 23 32 4 8 -6 -1 -23 -20 -17
-19 -31 -30 -32 -24 0 6 -12 16 -26 22 -15 7 -22 17 -18 24 4 7 3 8 -4 4 -26
-16 -10 21 26 58 20 22 26 32 12 21 -13 -11 -32 -29 -41 -40 -17 -19 -17 -19
-24 16 -8 45 0 100 21 141 9 16 11 27 6 24 -6 -3 -12 -1 -15 6 -2 7 -3 6 -2
-3z"/>
<path d="M2570 4017 c0 -3 -16 -60 -35 -126 -42 -147 -75 -309 -67 -330 3 -9
16 -29 29 -45 28 -34 96 -166 90 -173 -7 -6 -88 102 -91 120 -2 19 -49 71 -66
75 -8 2 -3 -7 10 -21 14 -13 40 -49 59 -80 39 -63 118 -150 131 -142 4 3 11
-2 14 -11 9 -23 9 -23 -26 -13 -35 10 -52 5 -18 -6 12 -4 19 -12 16 -20 -2 -7
2 -16 10 -19 24 -9 27 -7 14 9 -7 9 -11 17 -9 20 9 8 25 -11 43 -48 9 -21 22
-35 28 -31 7 4 6 9 -2 14 -7 4 -9 13 -6 19 4 6 2 11 -3 11 -6 0 -11 5 -11 11
0 6 7 9 16 7 19 -4 58 -98 41 -98 -6 0 -4 -6 4 -12 9 -7 24 -35 34 -63 37
-102 78 -186 86 -174 4 8 13 1 24 -20 9 -18 19 -31 21 -28 3 2 -11 32 -31 66
-20 34 -48 87 -61 118 -20 45 -22 54 -9 49 9 -3 23 -6 31 -6 8 0 17 -8 20 -17
16 -49 73 -149 102 -182 l33 -36 -29 45 c-39 59 -95 171 -89 177 3 2 34 -4 69
-15 34 -11 66 -18 71 -15 14 8 7 24 -15 32 -13 5 -45 28 -73 52 -47 40 -48 40
-16 6 36 -38 35 -45 -2 -25 -33 17 -70 59 -89 101 -21 47 -32 49 -12 2 20 -48
18 -52 -11 -21 -13 14 -31 26 -39 26 -9 0 -18 13 -22 35 -3 19 -10 38 -15 41
-5 3 -6 -3 -3 -13 5 -16 4 -16 -10 1 -21 27 -22 54 -1 36 11 -9 15 -9 15 -1 0
7 4 10 9 7 5 -4 5 9 1 30 -11 48 -21 56 -13 10 3 -23 2 -36 -5 -36 -16 0 -32
34 -32 64 0 14 -4 26 -9 26 -9 0 1 -58 13 -78 3 -6 2 -13 -4 -17 -6 -4 -4 -15
6 -31 15 -22 15 -24 0 -24 -9 0 -19 7 -21 15 -3 8 -8 23 -12 33 -7 17 -10 31
-15 67 -2 11 -9 26 -15 33 -7 7 -13 22 -13 32 0 13 -5 17 -14 14 -26 -10 -49
41 -50 111 0 36 -5 65 -10 65 -5 0 -6 -31 -3 -71 l6 -70 -25 37 c-14 21 -28
51 -31 68 -5 34 33 212 73 345 14 45 23 86 20 89 -3 3 -6 3 -6 -1z"/>
<path d="M4570 3895 c-26 -28 -41 -26 -19 2 13 16 12 17 -3 4 -10 -7 -18 -10
-18 -6 0 5 -8 1 -17 -7 -23 -20 -56 -20 -48 0 5 12 3 13 -10 2 -11 -9 -19 -10
-26 -3 -14 14 -56 3 -126 -33 l-52 -26 -63 21 c-69 23 -113 26 -173 10 -22 -6
-132 -14 -245 -18 -176 -5 -211 -9 -244 -26 -22 -11 -42 -26 -44 -32 -4 -15
34 -18 43 -3 11 18 86 31 183 30 53 0 161 10 238 22 l142 21 81 -26 c88 -28
107 -26 179 16 31 18 40 19 95 9 41 -8 75 -8 102 -2 55 13 65 12 65 -5 0 -19
39 -19 64 0 16 12 18 19 8 40 -12 25 -36 33 -47 15 -9 -15 -27 -12 -19 3 4 6
-2 3 -14 -7 -23 -20 -31 -9 -10 12 7 7 10 12 7 12 -3 0 -16 -11 -29 -25z"/>
<path d="M4295 3654 c-30 -8 -101 -14 -177 -14 -82 0 -129 -4 -134 -11 -5 -8
-9 -8 -14 1 -5 8 -16 1 -34 -20 -27 -32 -34 -60 -15 -60 5 0 7 5 4 10 -4 6 1
22 9 35 20 30 42 35 26 6 -17 -32 -11 -36 11 -7 25 32 39 34 32 4 -6 -23 -6
-22 16 2 16 17 21 20 17 8 -4 -15 1 -18 29 -18 26 0 33 3 29 15 -5 12 0 14 22
9 16 -3 62 -1 102 4 69 8 73 7 68 -10 -3 -16 0 -14 19 6 30 32 39 33 29 4 -6
-22 -6 -22 14 2 12 14 21 21 22 16 0 -5 7 -3 15 4 10 9 15 9 15 1 0 -6 -4 -11
-10 -11 -5 0 -10 -11 -10 -25 0 -34 17 -32 22 3 3 15 8 34 12 42 8 20 -52 22
-119 4z"/>
<path d="M4400 3361 c0 -5 7 -11 15 -15 8 -3 15 -13 15 -22 0 -10 -5 -14 -15
-10 -25 9 -17 -10 10 -24 14 -7 25 -20 25 -28 0 -11 -3 -12 -14 -3 -11 9 -13
6 -13 -15 0 -18 2 -22 8 -13 7 11 9 10 9 -3 0 -10 5 -18 12 -18 9 0 9 -3 0
-12 -10 -10 -15 -10 -23 2 -7 11 -8 9 -4 -10 4 -19 -7 -39 -46 -88 -28 -35
-53 -61 -56 -58 -3 3 0 14 7 23 7 10 -5 -2 -27 -27 -23 -25 -39 -47 -37 -50 3
-2 16 9 29 25 13 17 24 25 25 19 0 -5 -13 -23 -30 -39 -30 -29 -63 -35 -112
-22 -17 4 -28 3 -28 -3 0 -5 7 -10 15 -10 9 0 18 -7 21 -15 7 -17 44 -21 44
-5 0 6 7 10 16 10 14 0 14 -2 0 -15 -21 -21 -82 -19 -95 3 -6 9 -11 12 -11 6
0 -5 6 -16 13 -23 10 -12 8 -13 -8 -6 -43 16 -59 16 -30 0 39 -22 42 -25 19
-25 -11 0 -30 9 -43 21 -12 12 -25 19 -27 16 -7 -7 48 -57 63 -57 6 0 14 -4
17 -9 3 -4 -5 -8 -17 -7 -24 1 -87 36 -87 48 0 4 -5 8 -12 8 -6 0 -3 -10 8
-22 16 -18 8 -16 -41 11 -53 29 -56 30 -30 8 17 -14 50 -36 75 -49 l44 -23
-39 -3 c-30 -3 -42 2 -59 21 -12 13 -39 39 -61 57 -26 22 -20 13 20 -28 33
-34 56 -62 52 -62 -18 0 -54 24 -80 54 l-29 31 22 -32 c31 -48 1 -44 -41 5
-27 32 -30 33 -15 7 10 -16 27 -38 38 -47 14 -13 16 -18 6 -18 -15 0 -53 38
-81 80 -10 13 -17 20 -17 15 0 -6 14 -27 31 -48 44 -54 18 -45 -32 11 -38 43
-39 23 0 -22 15 -18 15 -18 -9 -5 -14 7 -30 14 -37 15 -17 3 -73 47 -73 58 0
5 -3 6 -7 2 -4 -4 -15 8 -25 26 -19 36 -24 25 -8 -16 5 -14 14 -26 19 -26 5 0
23 -12 40 -27 46 -41 132 -65 247 -70 158 -8 266 32 309 112 22 43 105 136
105 119 0 -6 -7 -17 -16 -25 -15 -13 -48 -69 -40 -69 4 0 26 30 104 140 23 33
22 32 -11 -5 -20 -22 -36 -37 -37 -32 0 14 74 107 86 107 23 0 27 121 5 128
-13 4 -15 32 -2 32 5 0 12 -6 14 -12 4 -9 6 -8 6 2 0 8 -15 25 -34 38 -19 12
-35 18 -35 13z"/>
<path d="M3446 3121 c58 -46 124 -124 124 -145 0 -25 12 -46 26 -46 8 0 15 -6
15 -12 2 -14 5 -64 8 -111 1 -29 58 -97 80 -97 7 0 -4 14 -24 31 -19 17 -39
45 -43 63 -10 37 -3 85 8 65 5 -7 6 -18 3 -26 -3 -7 0 -13 5 -13 6 0 39 -25
74 -55 35 -31 75 -59 91 -62 15 -3 27 -10 27 -15 0 -16 -61 0 -105 28 -25 16
-32 18 -17 5 14 -12 18 -21 10 -23 -7 -3 9 -10 35 -18 58 -16 56 -34 -3 -38
-32 -3 -51 2 -74 19 l-31 22 24 -26 c18 -20 34 -27 63 -27 21 0 38 -2 38 -5 0
-19 -45 -63 -59 -58 -13 4 -14 3 -2 -5 12 -9 12 -13 2 -26 -20 -24 -42 -20
-84 15 -21 17 -40 29 -43 26 -3 -3 10 -16 30 -29 20 -13 36 -26 36 -31 0 -9
-76 29 -85 43 -4 6 -10 8 -15 5 -5 -3 -21 22 -36 55 -14 33 -33 65 -42 72 -8
7 -6 -2 7 -22 11 -19 21 -42 21 -51 0 -21 93 -153 122 -173 20 -14 21 -19 10
-37 -8 -12 -11 -23 -9 -25 8 -8 69 55 63 65 -3 5 8 26 24 46 17 21 30 41 30
44 0 3 22 30 49 58 55 60 88 76 181 92 36 7 84 19 108 27 40 15 45 15 61 0 12
-11 25 -14 37 -9 17 6 17 8 -4 13 -33 7 -23 25 13 23 24 -2 26 0 10 6 -18 7
-17 9 13 25 17 9 32 21 32 26 0 12 -2 12 -37 -1 -15 -6 -46 -13 -68 -15 -22
-3 -58 -9 -80 -14 -22 -5 -65 -10 -95 -10 -30 -1 -64 -6 -75 -11 -21 -10 125
-5 175 6 14 3 8 -1 -14 -10 -21 -8 -63 -17 -94 -20 -31 -3 -62 -11 -71 -18
-12 -10 -14 -9 -8 6 5 12 1 17 -13 17 -14 0 -18 -5 -13 -16 5 -13 2 -15 -18
-9 -35 11 -77 33 -84 45 -8 14 -1 13 42 -5 20 -8 38 -13 41 -10 6 6 -44 25
-72 28 -24 2 -136 110 -136 131 0 7 -7 27 -15 42 -11 21 -15 24 -15 11 0 -10
-4 -15 -10 -12 -5 3 -10 15 -10 26 0 27 -70 117 -121 157 -61 46 -72 40 -13
-7z"/>
</g>
</svg>
